<svg xmlns="http://www.w3.org/2000/svg" viewBox="0 0 3951.01 2222.44">
    <defs>
    <style>.cls-1{opacity:0.3;}.cls-2{fill:#4fffff;}.cls-3{fill:#f51928;}.cls-4{fill:#f9b025;}.cls-5{fill:#c51b55;}</style>
    </defs>
    <polygon class="cls-2" points="1495.01 1363.77 1479.41 1390.78 1463.82 1363.77 1495.01 1363.77"/>
    <polygon class="cls-2" points="1471.58 1395.3 1440.39 1395.3 1455.99 1368.29 1471.58 1395.3"/>
    <polygon class="cls-2" points="1518.43 1395.3 1487.24 1395.3 1502.84 1368.29 1518.43 1395.3"/>
    <polygon class="cls-2" points="1541.86 1363.77 1526.26 1390.78 1510.67 1363.77 1541.86 1363.77"/>
    <polygon class="cls-2" points="1565.29 1395.3 1534.09 1395.3 1549.69 1368.29 1565.29 1395.3"/>
    <polygon class="cls-2" points="1448.16 1363.77 1432.56 1390.78 1416.96 1363.77 1448.16 1363.77"/>
    <polygon class="cls-2" points="1448.16 1354.73 1416.96 1354.73 1432.56 1327.71 1448.16 1354.73"/>
    <polygon class="cls-2" points="1471.58 1323.19 1455.99 1350.21 1440.39 1323.19 1471.58 1323.19"/>
    <polygon class="cls-2" points="1424.73 1323.19 1409.14 1350.21 1393.54 1323.19 1424.73 1323.19"/>
    <polygon class="cls-2" points="1471.58 1314.15 1440.39 1314.15 1455.99 1287.14 1471.58 1314.15"/>
    <polygon class="cls-2" points="1448.16 1282.62 1432.56 1309.63 1416.96 1282.62 1448.16 1282.62"/>
    
    <polygon class="cls-2" points="1424.73 1395.3 1393.54 1395.3 1409.14 1368.29 1424.73 1395.3"/>
    
    <polygon class="cls-2" points="1682.41 1517.02 1651.22 1517.02 1666.82 1490.01 1682.41 1517.02"/>
    <polygon class="cls-2" points="1658.99 1485.49 1643.39 1512.5 1627.8 1485.49 1658.99 1485.49"/>
    <polygon class="cls-2" points="1658.99 1476.45 1627.8 1476.45 1643.39 1449.44 1658.99 1476.45"/>
    <polygon class="cls-2" points="1682.41 1444.92 1666.82 1471.93 1651.22 1444.92 1682.41 1444.92"/>
    <polygon class="cls-2" points="1635.56 1444.92 1619.97 1471.93 1604.37 1444.92 1635.56 1444.92"/>
    <polygon class="cls-2" points="1588.71 1435.88 1557.52 1435.88 1573.12 1408.86 1588.71 1435.88"/>
    <polygon class="cls-2" points="1588.71 1444.92 1573.12 1471.93 1557.52 1444.92 1588.71 1444.92"/>
    <polygon class="cls-2" points="1565.29 1476.45 1534.09 1476.45 1549.69 1449.44 1565.29 1476.45"/>
    <polygon class="cls-2" points="1612.14 1476.45 1580.95 1476.45 1596.54 1449.44 1612.14 1476.45"/>
    <polygon class="cls-2" points="1565.29 1485.49 1549.69 1512.5 1534.09 1485.49 1565.29 1485.49"/>
    <polygon class="cls-2" points="1541.86 1517.02 1510.67 1517.02 1526.26 1490.01 1541.86 1517.02"/>
    <polygon class="cls-2" points="1588.71 1517.02 1557.52 1517.02 1573.12 1490.01 1588.71 1517.02"/>
    <polygon class="cls-2" points="1612.14 1485.49 1596.54 1512.5 1580.94 1485.49 1612.14 1485.49"/>
    <polygon class="cls-2" points="1635.56 1517.02 1604.37 1517.02 1619.97 1490.01 1635.56 1517.02"/>
    <polygon class="cls-2" points="1518.43 1485.49 1502.84 1512.5 1487.24 1485.49 1518.43 1485.49"/>
    <polygon class="cls-2" points="1518.43 1476.45 1487.24 1476.45 1502.84 1449.44 1518.43 1476.45"/>
    <polygon class="cls-2" points="1541.86 1444.92 1526.26 1471.93 1510.67 1444.92 1541.86 1444.92"/>
    <polygon class="cls-2" points="1495.01 1444.92 1479.41 1471.93 1463.82 1444.92 1495.01 1444.92"/>
    <polygon class="cls-2" points="1541.86 1435.88 1510.67 1435.88 1526.26 1408.86 1541.86 1435.88"/>
    <polygon class="cls-2" points="1565.29 1404.34 1549.69 1431.35 1534.09 1404.34 1565.29 1404.34"/>
    <polygon class="cls-2" points="1518.43 1404.34 1502.84 1431.35 1487.24 1404.34 1518.43 1404.34"/>
    <polygon class="cls-2" points="1495.01 1435.88 1463.82 1435.88 1479.41 1408.86 1495.01 1435.88"/>
    <polygon class="cls-2" points="1471.58 1404.34 1455.99 1431.35 1440.39 1404.34 1471.58 1404.34"/>
    <polygon class="cls-2" points="1448.16 1435.88 1416.96 1435.88 1432.56 1408.86 1448.16 1435.88"/>
    <polygon class="cls-2" points="1448.16 1444.92 1432.56 1471.93 1416.96 1444.92 1448.16 1444.92"/>
    <polygon class="cls-2" points="1424.73 1476.45 1393.54 1476.45 1409.14 1449.44 1424.73 1476.45"/>
    <polygon class="cls-2" points="1471.58 1476.45 1440.39 1476.45 1455.99 1449.44 1471.58 1476.45"/>
    <polygon class="cls-2" points="1424.73 1485.49 1409.14 1512.5 1393.54 1485.49 1424.73 1485.49"/>
    <polygon class="cls-2" points="1401.31 1517.02 1370.11 1517.02 1385.71 1490.01 1401.31 1517.02"/>
    <polygon class="cls-2" points="1448.16 1517.02 1416.96 1517.02 1432.56 1490.01 1448.16 1517.02"/>
    <polygon class="cls-2" points="1471.58 1485.49 1455.99 1512.5 1440.39 1485.49 1471.58 1485.49"/>
    <polygon class="cls-2" points="1495.01 1517.02 1463.82 1517.02 1479.41 1490.01 1495.01 1517.02"/>
    <polygon class="cls-2" points="1377.88 1485.49 1362.28 1512.5 1346.69 1485.49 1377.88 1485.49"/>
    <polygon class="cls-2" points="1377.88 1476.45 1346.69 1476.45 1362.28 1449.44 1377.88 1476.45"/>
    <polygon class="cls-2" points="1401.31 1444.92 1385.71 1471.93 1370.11 1444.92 1401.31 1444.92"/>
    <polygon class="cls-2" points="1354.45 1444.92 1338.86 1471.93 1323.26 1444.92 1354.45 1444.92"/>
    <polygon class="cls-2" points="1401.31 1435.88 1370.11 1435.88 1385.71 1408.86 1401.31 1435.88"/>
    <polygon class="cls-2" points="1424.73 1404.34 1409.14 1431.35 1393.54 1404.34 1424.73 1404.34"/>
    <polygon class="cls-2" points="1377.88 1404.34 1362.28 1431.35 1346.69 1404.34 1377.88 1404.34"/>
    <polygon class="cls-2" points="1354.45 1435.88 1323.26 1435.88 1338.86 1408.86 1354.45 1435.88"/>
    <polygon class="cls-2" points="1331.03 1404.34 1315.43 1431.35 1299.84 1404.34 1331.03 1404.34"/>
    <polygon class="cls-2" points="1307.6 1435.88 1276.41 1435.88 1292.01 1408.86 1307.6 1435.88"/>
    <polygon class="cls-2" points="1307.6 1444.92 1292.01 1471.93 1276.41 1444.92 1307.6 1444.92"/>
    <polygon class="cls-2" points="1284.18 1476.45 1252.98 1476.45 1268.58 1449.44 1284.18 1476.45"/>
    <polygon class="cls-2" points="1331.03 1476.45 1299.84 1476.45 1315.43 1449.44 1331.03 1476.45"/>
    <polygon class="cls-2" points="1307.6 1517.02 1276.41 1517.02 1292.01 1490.01 1307.6 1517.02"/>
    <polygon class="cls-2" points="1331.03 1485.49 1315.43 1512.5 1299.84 1485.49 1331.03 1485.49"/>
    <polygon class="cls-2" points="1354.45 1517.02 1323.26 1517.02 1338.86 1490.01 1354.45 1517.02"/>
    <polygon class="cls-2" points="1260.75 1444.92 1245.16 1471.93 1229.56 1444.92 1260.75 1444.92"/>
    
    <polygon class="cls-2" points="1635.56 1598.17 1604.37 1598.17 1619.97 1571.16 1635.56 1598.17"/>
    <polygon class="cls-2" points="1588.71 1607.21 1573.12 1634.23 1557.52 1607.21 1588.71 1607.21"/>
    <polygon class="cls-2" points="1588.71 1598.17 1557.52 1598.17 1573.12 1571.16 1588.71 1598.17"/>
    <polygon class="cls-2" points="1612.14 1566.64 1596.54 1593.65 1580.94 1566.64 1612.14 1566.64"/>
    <polygon class="cls-2" points="1565.29 1566.64 1549.69 1593.65 1534.09 1566.64 1565.29 1566.64"/>
    <polygon class="cls-2" points="1612.14 1557.6 1580.94 1557.6 1596.54 1530.59 1612.14 1557.6"/>
    <polygon class="cls-2" points="1635.56 1526.06 1619.97 1553.08 1604.37 1526.06 1635.56 1526.06"/>
    <polygon class="cls-2" points="1588.71 1526.06 1573.12 1553.08 1557.52 1526.06 1588.71 1526.06"/>
    <polygon class="cls-2" points="1565.29 1557.6 1534.09 1557.6 1549.69 1530.59 1565.29 1557.6"/>
    <polygon class="cls-2" points="1541.86 1526.06 1526.26 1553.08 1510.67 1526.06 1541.86 1526.06"/>
    <polygon class="cls-2" points="1518.43 1557.6 1487.24 1557.6 1502.84 1530.59 1518.43 1557.6"/>
    <polygon class="cls-2" points="1518.43 1566.64 1502.84 1593.65 1487.24 1566.64 1518.43 1566.64"/>
    <polygon class="cls-2" points="1495.01 1598.17 1463.82 1598.17 1479.41 1571.16 1495.01 1598.17"/>
    <polygon class="cls-2" points="1541.86 1598.17 1510.67 1598.17 1526.26 1571.16 1541.86 1598.17"/>
    <polygon class="cls-2" points="1495.01 1607.21 1479.41 1634.23 1463.82 1607.21 1495.01 1607.21"/>
    <polygon class="cls-2" points="1471.58 1638.75 1440.39 1638.75 1455.99 1611.73 1471.58 1638.75"/>
    <polygon class="cls-2" points="1518.43 1638.75 1487.24 1638.75 1502.84 1611.73 1518.43 1638.75"/>
    <polygon class="cls-2" points="1541.86 1607.21 1526.26 1634.23 1510.67 1607.21 1541.86 1607.21"/>
    <polygon class="cls-2" points="1565.29 1638.75 1534.09 1638.75 1549.69 1611.73 1565.29 1638.75"/>
    <polygon class="cls-2" points="1448.16 1607.21 1432.56 1634.23 1416.96 1607.21 1448.16 1607.21"/>
    <polygon class="cls-2" points="1448.16 1598.17 1416.96 1598.17 1432.56 1571.16 1448.16 1598.17"/>
    <polygon class="cls-2" points="1471.58 1566.64 1455.99 1593.65 1440.39 1566.64 1471.58 1566.64"/>
    <polygon class="cls-2" points="1424.73 1566.64 1409.13 1593.65 1393.54 1566.64 1424.73 1566.64"/>
    <polygon class="cls-2" points="1471.58 1557.6 1440.39 1557.6 1455.99 1530.59 1471.58 1557.6"/>
    <polygon class="cls-2" points="1495.01 1526.06 1479.41 1553.08 1463.82 1526.06 1495.01 1526.06"/>
    <polygon class="cls-2" points="1448.16 1526.06 1432.56 1553.08 1416.96 1526.06 1448.16 1526.06"/>
    <polygon class="cls-2" points="1424.73 1557.6 1393.54 1557.6 1409.14 1530.59 1424.73 1557.6"/>
    <polygon class="cls-2" points="1401.31 1526.06 1385.71 1553.08 1370.11 1526.06 1401.31 1526.06"/>
    <polygon class="cls-2" points="1377.88 1557.6 1346.69 1557.6 1362.28 1530.59 1377.88 1557.6"/>
    <polygon class="cls-2" points="1377.88 1566.64 1362.28 1593.65 1346.69 1566.64 1377.88 1566.64"/>
    <polygon class="cls-2" points="1401.31 1598.17 1370.11 1598.17 1385.71 1571.16 1401.31 1598.17"/>
    <polygon class="cls-2" points="1354.45 1607.21 1338.86 1634.23 1323.26 1607.21 1354.45 1607.21"/>
    <polygon class="cls-2" points="1377.88 1638.75 1346.69 1638.75 1362.28 1611.73 1377.88 1638.75"/>
    <polygon class="cls-2" points="1401.31 1607.21 1385.71 1634.23 1370.11 1607.21 1401.31 1607.21"/>
    <polygon class="cls-2" points="1424.73 1638.75 1393.54 1638.75 1409.13 1611.73 1424.73 1638.75"/>
    <polygon class="cls-2" points="1331.03 1557.6 1299.84 1557.6 1315.43 1530.59 1331.03 1557.6"/>
    <polygon class="cls-2" points="1354.45 1526.06 1338.86 1553.08 1323.26 1526.06 1354.45 1526.06"/>
    
    <polygon class="cls-2" points="1518.47 1728.94 1502.87 1755.95 1487.27 1728.94 1518.47 1728.94"/>
    <polygon class="cls-2" points="1518.47 1719.9 1487.27 1719.9 1502.87 1692.88 1518.47 1719.9"/>
    <polygon class="cls-2" points="1541.89 1688.36 1526.3 1715.38 1510.7 1688.36 1541.89 1688.36"/>
    <polygon class="cls-2" points="1495.04 1688.36 1479.44 1715.38 1463.85 1688.36 1495.04 1688.36"/>
    <polygon class="cls-2" points="1541.89 1679.32 1510.7 1679.32 1526.3 1652.31 1541.89 1679.32"/>
    <polygon class="cls-2" points="1565.32 1647.79 1549.72 1674.8 1534.13 1647.79 1565.32 1647.79"/>
    <polygon class="cls-2" points="1518.47 1647.79 1502.87 1674.8 1487.27 1647.79 1518.47 1647.79"/>
    <polygon class="cls-2" points="1495.04 1679.32 1463.85 1679.32 1479.44 1652.31 1495.04 1679.32"/>
    <polygon class="cls-2" points="1471.61 1647.79 1456.02 1674.8 1440.42 1647.79 1471.61 1647.79"/>
    <polygon class="cls-2" points="1448.19 1679.32 1417 1679.32 1432.59 1652.31 1448.19 1679.32"/>
    <polygon class="cls-2" points="1448.19 1688.36 1432.59 1715.38 1417 1688.36 1448.19 1688.36"/>
    <polygon class="cls-2" points="1424.76 1719.9 1393.57 1719.9 1409.17 1692.88 1424.76 1719.9"/>
    <polygon class="cls-2" points="1471.61 1719.9 1440.42 1719.9 1456.02 1692.88 1471.61 1719.9"/>
    <polygon class="cls-2" points="1424.76 1728.94 1409.17 1755.95 1393.57 1728.94 1424.76 1728.94"/>
    <polygon class="cls-2" points="1401.34 1760.47 1370.14 1760.47 1385.74 1733.46 1401.34 1760.47"/>
    <polygon class="cls-2" points="1448.19 1760.47 1417 1760.47 1432.59 1733.46 1448.19 1760.47"/>
    <polygon class="cls-2" points="1471.61 1728.94 1456.02 1755.95 1440.42 1728.94 1471.61 1728.94"/>
    <polygon class="cls-2" points="1495.04 1760.47 1463.85 1760.47 1479.44 1733.46 1495.04 1760.47"/>
    <polygon class="cls-2" points="1377.91 1728.94 1362.32 1755.95 1346.72 1728.94 1377.91 1728.94"/>
    <polygon class="cls-2" points="1377.91 1719.9 1346.72 1719.9 1362.32 1692.88 1377.91 1719.9"/>
    <polygon class="cls-2" points="1401.34 1688.36 1385.74 1715.38 1370.15 1688.36 1401.34 1688.36"/>
    <polygon class="cls-2" points="1401.34 1679.32 1370.15 1679.32 1385.74 1652.31 1401.34 1679.32"/>
    <polygon class="cls-2" points="1424.76 1647.79 1409.17 1674.8 1393.57 1647.79 1424.76 1647.79"/>
    <polygon class="cls-2" points="1377.91 1647.79 1362.32 1674.8 1346.72 1647.79 1377.91 1647.79"/>
    <polygon class="cls-2" points="1471.62 1810.09 1456.02 1837.1 1440.42 1810.09 1471.62 1810.09"/>
    <polygon class="cls-2" points="1448.19 1769.51 1432.59 1796.53 1417 1769.51 1448.19 1769.51"/>
    <polygon class="cls-2" points="1424.76 1801.05 1393.57 1801.05 1409.17 1774.03 1424.76 1801.05"/>
    <polygon class="cls-2" points="1424.76 1810.09 1409.17 1837.1 1393.57 1810.09 1424.76 1810.09"/>
    <polygon class="cls-2" points="1401.34 1841.62 1370.15 1841.62 1385.74 1814.61 1401.34 1841.62"/>
    <polygon class="cls-2" points="1448.19 1841.62 1417 1841.62 1432.59 1814.61 1448.19 1841.62"/>
    <polygon class="cls-2" points="1401.34 1850.66 1385.74 1877.67 1370.15 1850.66 1401.34 1850.66"/>
    <polygon class="cls-2" points="1424.76 1882.19 1393.57 1882.19 1409.17 1855.18 1424.76 1882.19"/>
    <polygon class="cls-2" points="1448.19 1850.66 1432.59 1877.67 1417 1850.66 1448.19 1850.66"/>
    <polygon class="cls-2" points="1377.91 1810.09 1362.32 1837.1 1346.72 1810.09 1377.91 1810.09"/>
    <polygon class="cls-2" points="1377.91 1801.05 1346.72 1801.05 1362.32 1774.03 1377.91 1801.05"/>
    <polygon class="cls-2" points="1401.34 1769.51 1385.74 1796.53 1370.15 1769.51 1401.34 1769.51"/>
    <polygon class="cls-2" points="1495.01 1922.77 1463.82 1922.77 1479.41 1895.76 1495.01 1922.77"/>
    <polygon class="cls-2" points="1448.16 1922.77 1416.96 1922.77 1432.56 1895.76 1448.16 1922.77"/>
    <polygon class="cls-2" points="1471.58 1891.24 1455.99 1918.25 1440.39 1891.24 1471.58 1891.24"/>
    <polygon class="cls-2" points="1471.62 1882.19 1440.42 1882.19 1456.02 1855.18 1471.62 1882.19"/>
    <polygon class="cls-2" points="1424.73 1891.24 1409.13 1918.25 1393.54 1891.24 1424.73 1891.24"/>
</svg>